<?xml version="1.0" encoding="UTF-8"?>
<svg width="32" height="32" viewBox="0 0 32 32" fill="none" xmlns="http://www.w3.org/2000/svg">
  <path d="M22.0883 10.4998V15.8095C22.0883 15.8095 19.5122 14.6583 17.1486 14.6583V19.9927C17.1486 25.1749 13.1697 27.0215 10.5937 25.1749C7.63754 23.0911 7.25024 17.5243 10.5937 15.4279V20.9067C10.5937 20.9067 8.7913 21.5835 8.7913 19.9927C8.7913 18.4019 10.5937 16.3435 13.557 17.5243V12.2147C13.557 12.2147 15.7467 11.5379 17.1486 12.2147V7.29071C19.5122 7.29071 20.6867 8.44191 22.0883 10.4998Z" fill="black"/>
  <path d="M22.0883 10.4998C20.6867 8.44191 19.5122 7.29071 17.1486 7.29071V12.2147C15.7467 11.5379 13.557 12.2147 13.557 12.2147V17.5243C10.5937 16.3435 8.7913 18.4019 8.7913 19.9927C8.7913 21.5835 10.5937 20.9067 10.5937 20.9067V15.4279C7.25024 17.5243 7.63754 23.0911 10.5937 25.1749C13.1697 27.0215 17.1486 25.1749 17.1486 19.9927V14.6583C19.5122 14.6583 22.0883 15.8095 22.0883 15.8095V10.4998Z" stroke="black" stroke-width="0.5"/>
</svg> 